<?xml version="1.0" encoding="UTF-8"?>
<svg width="32px" height="32px" viewBox="0 0 32 32" version="1.1" xmlns="http://www.w3.org/2000/svg" xmlns:xlink="http://www.w3.org/1999/xlink">
    <title>矿机 (1)</title>
    <g id="Coinbase" stroke="none" stroke-width="1" fill="none" fill-rule="evenodd">
        <g id="矿机列表-进行中" transform="translate(-116.000000, -168.000000)" fill="#1652F0" fill-rule="nonzero">
            <g id="编组-2" transform="translate(32.000000, 168.000000)">
                <g id="矿机-(1)" transform="translate(84.000000, 0.000000)">
                    <path d="M12.0753493,21.9929673 C12.0753493,21.9929673 12.5249503,16.0328964 18.1126145,15.9674909 L22.0951459,15.9674909 L22.0951459,2.69836182 C22.0956208,1.23472432 20.9270458,0.0376434886 19.4614175,0.000189284645 L2.76148373,0.000189284645 C2.03664218,-0.00833310171 1.33811329,0.271233197 0.820034453,0.777397139 C0.301955612,1.28356108 0.00690914441,1.97471965 0,2.69836182 L0,32 L6.03726519,32 L6.03726519,28.0184437 C5.90869078,21.2898588 12.0753493,21.9929673 12.0753493,21.9929673 Z M4.04968481,3.98194362 L18.0536504,3.98194362 L18.0536504,7.95532426 L4.04968481,7.95532426 L4.04968481,3.98194362 Z M4.04968481,13.9808006 L4.04968481,10.00742 L18.0536504,10.00742 L18.0536504,13.9808006 L4.04968481,13.9808006 Z M26.0793149,23.9796576 C26.0793149,23.9796576 25.3078684,17.7661406 20.0412308,17.9541813 C20.0412308,17.9541813 14.1325401,18.0849921 14.0039656,23.9796576 C14.0039656,23.9796576 8.09445591,23.5954006 7.96588151,27.9612139 C7.96588151,32.768514 11.9484128,31.9345945 11.9484128,31.9345945 L28.0054744,31.9345945 C28.0054744,31.9345945 31.9880057,31.8037837 31.9880057,27.9612139 C32.3090323,23.0885085 26.0793149,23.9796576 26.0793149,23.9796576 Z" id="形状"></path>
                </g>
            </g>
        </g>
    </g>
</svg>