<?xml version="1.0" encoding="UTF-8"?>
<svg width="32px" height="32px" viewBox="0 0 32 32" version="1.1" xmlns="http://www.w3.org/2000/svg" xmlns:xlink="http://www.w3.org/1999/xlink">
    <title>激活-solid</title>
    <g id="Coinbase" stroke="none" stroke-width="1" fill="none" fill-rule="evenodd">
        <g id="画板" transform="translate(-151.000000, -223.000000)" fill-rule="nonzero">
            <g id="编组-6" transform="translate(41.000000, 202.000000)">
                <g id="激活-solid" transform="translate(110.000000, 21.000000)">
                    <rect id="矩形" fill="#000000" opacity="0" x="0" y="0" width="32" height="32"></rect>
                    <path d="M18.6666667,2.66666666 L26.6666667,10.6666667 L26.6666667,26.6666667 C26.6666667,28.0666667 25.5733333,29.224 24.1986667,29.3253333 L24,29.3333333 L7.98666666,29.3333333 C6.58666666,29.3333333 5.44133331,28.24 5.34,26.8653333 L5.33333334,26.6666667 L5.34666666,5.33333334 C5.34666666,3.93333334 6.42666666,2.776 7.80133334,2.67466666 L8,2.66666666 L18.6666667,2.66666666 Z M17.3333333,10.6666667 L14.6666667,10.6666667 L14.6666667,16.2266667 C12.7758636,16.8942984 11.6712128,18.8583801 12.0827463,20.8209061 C12.4942799,22.7834322 14.2948988,24.1382908 16.2946253,23.9900947 C18.2943519,23.8418985 19.8755852,22.2364168 19.9933333,20.2346667 L20,20 L19.9933333,19.7653333 C19.9041662,18.2482763 18.9635879,16.9125621 17.5653333,16.3173333 L17.3333333,16.228 L17.3333333,14.6666667 L20,14.6666667 L20,12 L17.3333333,12 L17.3333333,10.6666667 L17.3333333,10.6666667 Z M16,18.6666667 C16.4763541,18.6666667 16.9165235,18.9207985 17.1547006,19.3333333 C17.3928777,19.7458681 17.3928777,20.2541319 17.1547006,20.6666667 C16.9165235,21.0792015 16.4763541,21.3333333 16,21.3333333 C15.2636203,21.3333333 14.6666667,20.7363797 14.6666667,20 C14.6666667,19.2636203 15.2636203,18.6666667 16,18.6666667 L16,18.6666667 Z" id="形状" fill="#FFFFFF"></path>
                </g>
            </g>
        </g>
    </g>
</svg>