<?xml version="1.0" encoding="UTF-8"?>
<svg width="31px" height="31px" viewBox="0 0 31 31" version="1.1" xmlns="http://www.w3.org/2000/svg" xmlns:xlink="http://www.w3.org/1999/xlink">
    <title>收 藏 (1)</title>
    <g id="Coinbase" stroke="none" stroke-width="1" fill="none" fill-rule="evenodd">
        <g id="首页" transform="translate(-263.000000, -584.000000)" fill-rule="nonzero">
            <g id="编组-8" transform="translate(36.000000, 563.000000)">
                <g id="收-藏-(1)" transform="translate(227.000000, 21.000000)">
                    <rect id="矩形" fill="#000000" opacity="0" x="0.0772430184" y="0.0772430184" width="30" height="30"></rect>
                    <path d="M15.0862301,0.612957304 C16.2002702,0.612957304 17.2362483,1.27649714 17.6706037,2.26564127 L20.7516767,8.53110153 L27.6392831,9.73674755 C28.7322503,9.89530577 29.6306308,10.681102 29.9343406,11.7441904 C30.2744113,12.7890198 29.99669,13.9365426 29.2166513,14.7096263 L29.1997017,14.7266259 L24.2570468,19.386672 L25.5062145,26.1154651 C25.707381,27.191486 25.2799462,28.2784876 24.390063,28.9558267 C23.9134211,29.3394685 23.3189645,29.5463288 22.7074197,29.5414442 C22.285058,29.5414442 21.8103227,29.4200404 21.370249,29.1996629 L15.0862301,26.0527812 L8.76329742,29.1945542 C8.36287053,29.4080027 7.90449831,29.5201585 7.43709412,29.5201585 C6.82973738,29.522526 6.23784765,29.3285013 5.74949493,28.9669542 C4.86456763,28.30224 4.41112194,27.1510277 4.62044066,26.1025467 L5.9136245,19.3857619 L0.956981828,14.7604488 C0.191377482,13.9838055 -0.102383365,12.8572931 0.186303026,11.8050541 L0.196214727,11.7709376 C0.55655494,10.6896612 1.45048488,9.93202204 2.53437932,9.78665984 L9.42093004,8.53298058 L12.5118854,2.24758477 C13.0084089,1.25242181 14.0182882,0.612957304 15.0862301,0.612957304 Z" id="形状" fill="#FFFFFF"></path>
                </g>
            </g>
        </g>
    </g>
</svg>