<?xml version="1.0" encoding="UTF-8"?>
<svg width="40px" height="40px" viewBox="0 0 40 40" version="1.1" xmlns="http://www.w3.org/2000/svg" xmlns:xlink="http://www.w3.org/1999/xlink">
    <title>笔记本，记录，通讯录</title>
    <g id="Coinbase" stroke="none" stroke-width="1" fill="none" fill-rule="evenodd">
        <g id="画板" transform="translate(-61.000000, -660.000000)" fill-rule="nonzero">
            <g id="笔记本，记录，通讯录" transform="translate(61.000000, 660.000000)">
                <rect id="矩形" fill="#000000" opacity="0" x="0" y="0" width="40" height="40"></rect>
                <path d="M32.5,1.66666668 C35.2614237,1.66666668 37.5,3.90524293 37.5,6.66666668 L37.5,33.3333333 C37.5,36.0947571 35.2614237,38.3333333 32.5,38.3333333 L10.8333333,38.3333333 C8.39344574,38.3333333 6.30982545,36.5723137 5.9025,34.1666667 L7.91666668,34.1666667 C9.95328554,34.1666339 11.6175782,32.541078 11.6655652,30.5050246 C11.7135522,28.4689711 10.1276893,26.7668135 8.09333332,26.6708333 L7.91666668,26.6666667 L5.83333332,26.6666667 L5.83333332,23.75 L7.91666668,23.75 C9.91904723,23.7499985 11.5681656,22.1768239 11.6625,20.1766667 L11.6666667,20 C11.6666651,17.9976194 10.0934906,16.348501 8.09333332,16.2541667 L7.91666668,16.25 L5.83333332,16.25 L5.83333332,13.3333333 L7.91666668,13.3333333 C9.91904723,13.3333318 11.5681656,11.7601572 11.6625,9.76 L11.6666667,9.58333332 C11.6666651,7.58095275 10.0934906,5.93183436 8.09333332,5.8375 L7.91666668,5.83333332 L5.9025,5.83333332 C6.30982545,3.42768632 8.39344574,1.66666668 10.8333333,1.66666668 L32.5,1.66666668 L32.5,1.66666668 Z M7.91666668,29.1666667 C8.60702262,29.1666667 9.16666668,29.7263107 9.16666668,30.4166667 C9.16666668,31.1070226 8.60702262,31.6666667 7.91666668,31.6666667 L3.75,31.6666667 C3.05964406,31.6666667 2.5,31.1070226 2.5,30.4166667 C2.5,29.7263107 3.05964406,29.1666667 3.75,29.1666667 L7.91666668,29.1666667 Z M31.5833333,11.75 C31.1144802,11.2810675 30.4785313,11.0176172 29.8154167,11.0176172 C29.1523021,11.0176172 28.5163531,11.2810675 28.0475,11.75 L16.0708333,23.7283333 C15.8127747,23.9862739 15.6464901,24.3217707 15.5975,24.6833333 L15.26,27.1766667 C15.2248003,27.436648 15.3140859,27.6980266 15.5009861,27.8821397 C15.6878864,28.0662528 15.9505768,28.1516016 16.21,28.1125 L18.6658333,27.7425 C19.0182934,27.6896582 19.3445329,27.5252241 19.5966667,27.2733333 L31.5825,15.2866667 C32.5584548,14.3104171 32.5584548,12.7279163 31.5825,11.7516667 L31.5833333,11.75 Z M7.91666668,18.75 C8.60702262,18.75 9.16666668,19.3096441 9.16666668,20 C9.16666668,20.6903559 8.60702262,21.25 7.91666668,21.25 L3.75,21.25 C3.05964406,21.25 2.5,20.6903559 2.5,20 C2.5,19.3096441 3.05964406,18.75 3.75,18.75 L7.91666668,18.75 Z M7.91666668,8.33333332 C8.60702262,8.33333332 9.16666668,8.89297738 9.16666668,9.58333332 C9.16666668,10.2736893 8.60702262,10.8333333 7.91666668,10.8333333 L3.75,10.8333333 C3.05964406,10.8333333 2.5,10.2736893 2.5,9.58333332 C2.5,8.89297738 3.05964406,8.33333332 3.75,8.33333332 L7.91666668,8.33333332 Z" id="形状" fill="#1652F0"></path>
            </g>
        </g>
    </g>
</svg>