<?xml version="1.0" encoding="UTF-8"?>
<svg width="54px" height="54px" viewBox="0 0 54 54" version="1.1" xmlns="http://www.w3.org/2000/svg" xmlns:xlink="http://www.w3.org/1999/xlink">
    <title>钱包</title>
    <g id="Coinbase" stroke="none" stroke-width="1" fill="none" fill-rule="evenodd">
        <g id="下拉菜单" transform="translate(-50.000000, -134.000000)" fill="#1652F0" fill-rule="nonzero">
            <g id="钱包" transform="translate(50.000000, 134.000000)">
                <path d="M43.0003204,3 L11.000595,3 C6.57939662,3 3,6.57986119 3,10.9996949 L3,43.0012206 C3,47.4168434 6.57939662,51 11.000595,51 L43.0003204,51 C47.420695,51 51,47.4168434 51,43.0012206 L51,36.3338012 L32.3345386,36.3338012 C27.9141641,36.3338012 24.3338521,32.1515142 24.3338521,27 C24.3338521,21.8437257 27.9141641,17.6672058 32.3345386,17.6672058 L51,17.6672058 L51,10.9996949 C51,6.57986119 47.4206949,3 43.0003204,3" id="路径"></path>
                <path d="M28,26.9995709 C28,29.7077433 29.8578935,32 32.0591842,32 L51,32 L51,22 L32.0591842,22 C29.8578935,22 28,24.2870213 28,26.9995709 M33.4128028,26.3746674 C33.4128028,25.3401137 34.3221508,24.4997854 35.4408623,24.4997854 L36.794481,24.4997854 C37.9141214,24.4997854 38.823748,25.3401136 38.823748,26.3746674 L38.823748,27.6254184 C38.823748,28.6590281 37.9141214,29.4993563 36.794481,29.4993563 L35.4408623,29.4993563 C34.3221507,29.4993563 33.4128028,28.6590281 33.4128028,27.6254184 L33.4128028,26.3746674 L33.4128028,26.3746674 Z" id="形状"></path>
            </g>
        </g>
    </g>
</svg>