<?xml version="1.0" encoding="UTF-8"?>
<svg width="56px" height="56px" viewBox="0 0 56 56" version="1.1" xmlns="http://www.w3.org/2000/svg" xmlns:xlink="http://www.w3.org/1999/xlink">
    <title>编组 5</title>
    <g id="Coinbase" stroke="none" stroke-width="1" fill="none" fill-rule="evenodd">
        <g id="矿机页面" transform="translate(-103.000000, -1752.000000)">
            <g id="编组-4" transform="translate(0.000000, 1710.000000)">
                <g id="编组-5" transform="translate(103.000000, 42.000000)">
                    <rect id="矩形" fill="#527FF6" opacity="0.972058977" x="0" y="0" width="56" height="56" rx="10"></rect>
                    <g id="支付" transform="translate(9.333333, 10.266667)" fill="#FFFFFF" fill-rule="nonzero">
                        <path d="M33.4671882,2.58876446 C32.9665363,0.731603889 31.0473707,-0.379878587 29.1838331,0.119585059 L6.3833116,6.21866924 C5.95914818,6.33122443 5.55584528,6.528196 5.20121685,6.78847988 L34.6006084,6.78847988 L33.4671882,2.58876446 Z M37.3333333,18.0228944 L37.3333333,12.0996777 C37.3333333,10.1440314 35.7687962,8.56122406 33.8287701,8.56122406 L3.49760974,8.56122406 C1.60625817,8.56122406 0.0764885006,10.0736844 0,11.9660184 L0,31.128539 C0.069534983,33.020873 1.60625817,34.5333333 3.49760974,34.5333333 L33.8357236,34.5333333 C35.7687962,34.5333333 37.3333333,32.950526 37.3333333,30.9948797 L37.3333333,25.0786977 C37.2359844,25.0857324 37.1386354,25.0927671 37.0412864,25.0927671 L30.0391134,25.0927671 C28.1060409,25.0927671 26.5415037,23.5099597 26.5415037,21.5543134 C26.5415037,19.598667 28.1060409,18.0158597 30.0391134,18.0158597 L37.0412864,18.0158597 C37.1386354,18.008825 37.2359844,18.0158597 37.3333333,18.0228944 Z" id="形状"></path>
                        <path d="M28.6511628,21.6940171 C28.6511628,22.4276923 29.2341085,23.0222222 29.9534884,23.0222222 C30.6728682,23.0222222 31.2496124,22.4276923 31.255814,21.6940171 C31.255814,20.9603419 30.6728682,20.365812 29.9534884,20.365812 C29.2341085,20.365812 28.6511628,20.9603419 28.6511628,21.6940171 Z" id="路径"></path>
                    </g>
                </g>
            </g>
        </g>
    </g>
</svg>