<?xml version="1.0" encoding="UTF-8"?>
<svg width="40px" height="40px" viewBox="0 0 40 40" version="1.1" xmlns="http://www.w3.org/2000/svg" xmlns:xlink="http://www.w3.org/1999/xlink">
    <title>菜单</title>
    <g id="Coinbase" stroke="none" stroke-width="1" fill="none" fill-rule="evenodd">
        <g id="首页" transform="translate(-44.000000, -64.000000)" fill-rule="nonzero">
            <g id="菜单" transform="translate(44.000000, 64.000000)">
                <rect id="矩形" fill="#000000" opacity="0" x="0" y="0" width="40" height="40"></rect>
                <path d="M33.9060547,17.9549609 L6.09394531,17.9549609 C5.00328125,17.9549609 4.04890625,18.9094141 4.04890625,20 C4.04890625,21.0905859 5.00335937,22.0450391 6.09394531,22.0450391 L33.9060547,22.0450391 C34.9967188,22.0450391 35.9510937,21.0905859 35.9510937,20 C35.9510937,18.9094141 34.9966406,17.9549609 33.9060547,17.9549609 L33.9060547,17.9549609 Z M33.9060547,29.8160547 L6.09394531,29.8160547 C5.00328125,29.8160547 4.04890625,30.7705078 4.04890625,31.8610937 C4.04890625,32.9516797 5.00335937,33.9061328 6.09394531,33.9061328 L33.9060547,33.9061328 C34.9967188,33.9061328 35.9510937,32.9516797 35.9510937,31.8610937 C35.9510937,30.7705078 34.9966406,29.8160547 33.9060547,29.8160547 Z M6.09394531,10.1839453 L33.9060547,10.1839453 C34.9967188,10.1839453 35.9510937,9.22949219 35.9510937,8.13890625 C35.9510937,7.04832031 34.9966406,6.09386719 33.9060547,6.09386719 L6.09394531,6.09386719 C5.00328125,6.09386719 4.04890625,7.04832031 4.04890625,8.13890625 C4.04890625,9.22949219 5.00335937,10.1839453 6.09394531,10.1839453 Z" id="形状" fill="#FFFFFF"></path>
            </g>
        </g>
    </g>
</svg>