<?xml version="1.0" encoding="UTF-8"?>
<svg width="112px" height="16px" viewBox="0 0 112 16" version="1.1" xmlns="http://www.w3.org/2000/svg" xmlns:xlink="http://www.w3.org/1999/xlink">
    <title>编组</title>
    <g id="Coinbase" stroke="none" stroke-width="1" fill="none" fill-rule="evenodd">
        <g id="矿机列表" transform="translate(-64.000000, -1035.000000)" fill-rule="nonzero">
            <g id="编组-4" transform="translate(32.000000, 514.000000)">
                <g id="编组" transform="translate(32.000000, 521.000000)">
                    <g id="星星2">
                        <rect id="矩形" fill="#000000" opacity="0" x="0" y="0" width="16" height="16"></rect>
                        <path d="M13.2109375,14.6046875 C13.25,14.8875 13.1375,15.1484375 12.9046875,15.3171875 C12.671875,15.484375 12.3890625,15.5109375 12.1296875,15.3859375 L8.34375,13.5640625 C8.128125,13.4609375 7.9015625,13.4609375 7.6859375,13.5640625 L3.896875,15.3796875 C3.6375,15.503125 3.3546875,15.478125 3.121875,15.309375 C2.8890625,15.140625 2.778125,14.8796875 2.8171875,14.596875 L3.3828125,10.4453125 C3.415625,10.209375 3.3453125,9.99375 3.1796875,9.821875 L0.2734375,6.7921875 C0.0765625,6.5859375 0.0125,6.309375 0.1015625,6.0375 C0.190625,5.765625 0.4046875,5.5796875 0.6875,5.528125 L4.825,4.7828125 C5.0609375,4.740625 5.24375,4.6078125 5.3578125,4.3984375 L7.3515625,0.7109375 C7.4875,0.459375 7.7328125,0.3140625 8.01875,0.3140625 C8.30625,0.3140625 8.55,0.459375 8.6859375,0.7125 L10.6765625,4.403125 C10.790625,4.6125 10.9734375,4.7453125 11.2078125,4.7890625 L15.3453125,5.5390625 C15.628125,5.590625 15.8421875,5.7765625 15.93125,6.0484375 C16.0203125,6.3203125 15.95625,6.596875 15.7578125,6.803125 L12.8515625,9.8296875 C12.6859375,10.0015625 12.615625,10.2171875 12.6484375,10.453125 L13.2109375,14.6046875 L13.2109375,14.6046875 Z" id="路径" fill="#F19927"></path>
                        <path d="M12.646875,10.453125 C12.615625,10.2171875 12.684375,10.003125 12.85,9.8296875 L15.7578125,6.803125 C15.95625,6.596875 16.0203125,6.3203125 15.93125,6.0484375 C15.8421875,5.7765625 15.628125,5.590625 15.3453125,5.5390625 L11.2078125,4.7890625 C10.971875,4.746875 10.7890625,4.6140625 10.6765625,4.403125 L8.6859375,0.7109375 C8.55,0.459375 8.30625,0.3140625 8.01875,0.3125 C7.73125,0.3125 7.4875,0.4578125 7.3515625,0.709375 L5.3578125,4.396875 C5.24375,4.60625 5.0609375,4.7390625 4.825,4.78125 L0.6875,5.528125 C0.4046875,5.5796875 0.190625,5.765625 0.1015625,6.0375 C0.0125,6.309375 0.0765625,6.5859375 0.275,6.7921875 L3.18125,9.821875 C3.346875,9.99375 3.4171875,10.209375 3.384375,10.4453125 L3.04375,12.9390625 L12.9859375,12.9390625 L12.646875,10.453125 Z" id="路径" fill="#FAD97E" opacity="0.2"></path>
                        <path d="M12.646875,10.453125 C12.615625,10.2171875 12.684375,10.003125 12.85,9.8296875 L15.7578125,6.803125 C15.95625,6.596875 16.0203125,6.3203125 15.93125,6.0484375 C15.8421875,5.7765625 15.628125,5.590625 15.3453125,5.5390625 L11.2078125,4.7890625 C10.971875,4.746875 10.7890625,4.6140625 10.6765625,4.403125 L8.6859375,0.7109375 C8.55,0.459375 8.30625,0.3140625 8.01875,0.3125 C7.73125,0.3125 7.4875,0.4578125 7.3515625,0.709375 L5.3578125,4.396875 C5.24375,4.60625 5.0609375,4.7390625 4.825,4.78125 L0.6875,5.528125 C0.4046875,5.5796875 0.190625,5.765625 0.1015625,6.0375 C0.0125,6.309375 0.0765625,6.5859375 0.275,6.7921875 L3.18125,9.821875 C3.346875,9.99375 3.4171875,10.209375 3.384375,10.4453125 L3.3390625,10.775 L12.6921875,10.775 L12.646875,10.453125 Z" id="路径" fill="#FAD97E" opacity="0.2"></path>
                        <path d="M15.7578125,6.803125 C15.95625,6.596875 16.0203125,6.3203125 15.93125,6.0484375 C15.8421875,5.7765625 15.628125,5.590625 15.3453125,5.5390625 L11.2078125,4.7890625 C10.971875,4.746875 10.7890625,4.6140625 10.6765625,4.403125 L8.6859375,0.7109375 C8.55,0.459375 8.30625,0.3140625 8.01875,0.3125 C7.73125,0.3125 7.4875,0.4578125 7.3515625,0.709375 L5.3578125,4.396875 C5.24375,4.60625 5.0609375,4.7390625 4.825,4.78125 L0.6875,5.528125 C0.4046875,5.5796875 0.190625,5.765625 0.1015625,6.0375 C0.0125,6.309375 0.0765625,6.5859375 0.275,6.7921875 L1.3265625,7.8890625 L14.715625,7.8890625 L15.7578125,6.803125 Z" id="路径" fill="#FAD97E" opacity="0.2"></path>
                        <path d="M15.346875,5.5390625 L11.209375,4.7890625 C10.9734375,4.746875 10.790625,4.6140625 10.678125,4.403125 L8.6859375,0.7109375 C8.55,0.459375 8.30625,0.3140625 8.01875,0.3125 C7.73125,0.3125 7.4875,0.4578125 7.3515625,0.709375 L5.3578125,4.396875 C5.24375,4.60625 5.0609375,4.7390625 4.825,4.78125 L0.6875,5.528125 C0.534375,5.55625 0.4046875,5.625 0.3,5.725 L15.7234375,5.725 C15.621875,5.63125 15.49375,5.565625 15.346875,5.5390625 Z" id="路径" fill="#FAD97E" opacity="0.2"></path>
                        <path d="M8.6859375,0.7109375 C8.55,0.459375 8.30625,0.3140625 8.01875,0.3125 C7.73125,0.3125 7.4875,0.4578125 7.3515625,0.709375 L5.8125,3.5578125 L10.2234375,3.5578125 L8.6859375,0.7109375 Z" id="路径" fill="#FAD97E" opacity="0.2"></path>
                    </g>
                    <g id="星星2" transform="translate(24.000000, 0.000000)">
                        <rect id="矩形" fill="#000000" opacity="0" x="0" y="0" width="16" height="16"></rect>
                        <path d="M13.2109375,14.6046875 C13.25,14.8875 13.1375,15.1484375 12.9046875,15.3171875 C12.671875,15.484375 12.3890625,15.5109375 12.1296875,15.3859375 L8.34375,13.5640625 C8.128125,13.4609375 7.9015625,13.4609375 7.6859375,13.5640625 L3.896875,15.3796875 C3.6375,15.503125 3.3546875,15.478125 3.121875,15.309375 C2.8890625,15.140625 2.778125,14.8796875 2.8171875,14.596875 L3.3828125,10.4453125 C3.415625,10.209375 3.3453125,9.99375 3.1796875,9.821875 L0.2734375,6.7921875 C0.0765625,6.5859375 0.0125,6.309375 0.1015625,6.0375 C0.190625,5.765625 0.4046875,5.5796875 0.6875,5.528125 L4.825,4.7828125 C5.0609375,4.740625 5.24375,4.6078125 5.3578125,4.3984375 L7.3515625,0.7109375 C7.4875,0.459375 7.7328125,0.3140625 8.01875,0.3140625 C8.30625,0.3140625 8.55,0.459375 8.6859375,0.7125 L10.6765625,4.403125 C10.790625,4.6125 10.9734375,4.7453125 11.2078125,4.7890625 L15.3453125,5.5390625 C15.628125,5.590625 15.8421875,5.7765625 15.93125,6.0484375 C16.0203125,6.3203125 15.95625,6.596875 15.7578125,6.803125 L12.8515625,9.8296875 C12.6859375,10.0015625 12.615625,10.2171875 12.6484375,10.453125 L13.2109375,14.6046875 L13.2109375,14.6046875 Z" id="路径" fill="#F19927"></path>
                        <path d="M12.646875,10.453125 C12.615625,10.2171875 12.684375,10.003125 12.85,9.8296875 L15.7578125,6.803125 C15.95625,6.596875 16.0203125,6.3203125 15.93125,6.0484375 C15.8421875,5.7765625 15.628125,5.590625 15.3453125,5.5390625 L11.2078125,4.7890625 C10.971875,4.746875 10.7890625,4.6140625 10.6765625,4.403125 L8.6859375,0.7109375 C8.55,0.459375 8.30625,0.3140625 8.01875,0.3125 C7.73125,0.3125 7.4875,0.4578125 7.3515625,0.709375 L5.3578125,4.396875 C5.24375,4.60625 5.0609375,4.7390625 4.825,4.78125 L0.6875,5.528125 C0.4046875,5.5796875 0.190625,5.765625 0.1015625,6.0375 C0.0125,6.309375 0.0765625,6.5859375 0.275,6.7921875 L3.18125,9.821875 C3.346875,9.99375 3.4171875,10.209375 3.384375,10.4453125 L3.04375,12.9390625 L12.9859375,12.9390625 L12.646875,10.453125 Z" id="路径" fill="#FAD97E" opacity="0.2"></path>
                        <path d="M12.646875,10.453125 C12.615625,10.2171875 12.684375,10.003125 12.85,9.8296875 L15.7578125,6.803125 C15.95625,6.596875 16.0203125,6.3203125 15.93125,6.0484375 C15.8421875,5.7765625 15.628125,5.590625 15.3453125,5.5390625 L11.2078125,4.7890625 C10.971875,4.746875 10.7890625,4.6140625 10.6765625,4.403125 L8.6859375,0.7109375 C8.55,0.459375 8.30625,0.3140625 8.01875,0.3125 C7.73125,0.3125 7.4875,0.4578125 7.3515625,0.709375 L5.3578125,4.396875 C5.24375,4.60625 5.0609375,4.7390625 4.825,4.78125 L0.6875,5.528125 C0.4046875,5.5796875 0.190625,5.765625 0.1015625,6.0375 C0.0125,6.309375 0.0765625,6.5859375 0.275,6.7921875 L3.18125,9.821875 C3.346875,9.99375 3.4171875,10.209375 3.384375,10.4453125 L3.3390625,10.775 L12.6921875,10.775 L12.646875,10.453125 Z" id="路径" fill="#FAD97E" opacity="0.2"></path>
                        <path d="M15.7578125,6.803125 C15.95625,6.596875 16.0203125,6.3203125 15.93125,6.0484375 C15.8421875,5.7765625 15.628125,5.590625 15.3453125,5.5390625 L11.2078125,4.7890625 C10.971875,4.746875 10.7890625,4.6140625 10.6765625,4.403125 L8.6859375,0.7109375 C8.55,0.459375 8.30625,0.3140625 8.01875,0.3125 C7.73125,0.3125 7.4875,0.4578125 7.3515625,0.709375 L5.3578125,4.396875 C5.24375,4.60625 5.0609375,4.7390625 4.825,4.78125 L0.6875,5.528125 C0.4046875,5.5796875 0.190625,5.765625 0.1015625,6.0375 C0.0125,6.309375 0.0765625,6.5859375 0.275,6.7921875 L1.3265625,7.8890625 L14.715625,7.8890625 L15.7578125,6.803125 Z" id="路径" fill="#FAD97E" opacity="0.2"></path>
                        <path d="M15.346875,5.5390625 L11.209375,4.7890625 C10.9734375,4.746875 10.790625,4.6140625 10.678125,4.403125 L8.6859375,0.7109375 C8.55,0.459375 8.30625,0.3140625 8.01875,0.3125 C7.73125,0.3125 7.4875,0.4578125 7.3515625,0.709375 L5.3578125,4.396875 C5.24375,4.60625 5.0609375,4.7390625 4.825,4.78125 L0.6875,5.528125 C0.534375,5.55625 0.4046875,5.625 0.3,5.725 L15.7234375,5.725 C15.621875,5.63125 15.49375,5.565625 15.346875,5.5390625 Z" id="路径" fill="#FAD97E" opacity="0.2"></path>
                        <path d="M8.6859375,0.7109375 C8.55,0.459375 8.30625,0.3140625 8.01875,0.3125 C7.73125,0.3125 7.4875,0.4578125 7.3515625,0.709375 L5.8125,3.5578125 L10.2234375,3.5578125 L8.6859375,0.7109375 Z" id="路径" fill="#FAD97E" opacity="0.2"></path>
                    </g>
                    <g id="星星2" transform="translate(48.000000, 0.000000)">
                        <rect id="矩形" fill="#000000" opacity="0" x="0" y="0" width="16" height="16"></rect>
                        <path d="M13.2109375,14.6046875 C13.25,14.8875 13.1375,15.1484375 12.9046875,15.3171875 C12.671875,15.484375 12.3890625,15.5109375 12.1296875,15.3859375 L8.34375,13.5640625 C8.128125,13.4609375 7.9015625,13.4609375 7.6859375,13.5640625 L3.896875,15.3796875 C3.6375,15.503125 3.3546875,15.478125 3.121875,15.309375 C2.8890625,15.140625 2.778125,14.8796875 2.8171875,14.596875 L3.3828125,10.4453125 C3.415625,10.209375 3.3453125,9.99375 3.1796875,9.821875 L0.2734375,6.7921875 C0.0765625,6.5859375 0.0125,6.309375 0.1015625,6.0375 C0.190625,5.765625 0.4046875,5.5796875 0.6875,5.528125 L4.825,4.7828125 C5.0609375,4.740625 5.24375,4.6078125 5.3578125,4.3984375 L7.3515625,0.7109375 C7.4875,0.459375 7.7328125,0.3140625 8.01875,0.3140625 C8.30625,0.3140625 8.55,0.459375 8.6859375,0.7125 L10.6765625,4.403125 C10.790625,4.6125 10.9734375,4.7453125 11.2078125,4.7890625 L15.3453125,5.5390625 C15.628125,5.590625 15.8421875,5.7765625 15.93125,6.0484375 C16.0203125,6.3203125 15.95625,6.596875 15.7578125,6.803125 L12.8515625,9.8296875 C12.6859375,10.0015625 12.615625,10.2171875 12.6484375,10.453125 L13.2109375,14.6046875 L13.2109375,14.6046875 Z" id="路径" fill="#F19927"></path>
                        <path d="M12.646875,10.453125 C12.615625,10.2171875 12.684375,10.003125 12.85,9.8296875 L15.7578125,6.803125 C15.95625,6.596875 16.0203125,6.3203125 15.93125,6.0484375 C15.8421875,5.7765625 15.628125,5.590625 15.3453125,5.5390625 L11.2078125,4.7890625 C10.971875,4.746875 10.7890625,4.6140625 10.6765625,4.403125 L8.6859375,0.7109375 C8.55,0.459375 8.30625,0.3140625 8.01875,0.3125 C7.73125,0.3125 7.4875,0.4578125 7.3515625,0.709375 L5.3578125,4.396875 C5.24375,4.60625 5.0609375,4.7390625 4.825,4.78125 L0.6875,5.528125 C0.4046875,5.5796875 0.190625,5.765625 0.1015625,6.0375 C0.0125,6.309375 0.0765625,6.5859375 0.275,6.7921875 L3.18125,9.821875 C3.346875,9.99375 3.4171875,10.209375 3.384375,10.4453125 L3.04375,12.9390625 L12.9859375,12.9390625 L12.646875,10.453125 Z" id="路径" fill="#FAD97E" opacity="0.2"></path>
                        <path d="M12.646875,10.453125 C12.615625,10.2171875 12.684375,10.003125 12.85,9.8296875 L15.7578125,6.803125 C15.95625,6.596875 16.0203125,6.3203125 15.93125,6.0484375 C15.8421875,5.7765625 15.628125,5.590625 15.3453125,5.5390625 L11.2078125,4.7890625 C10.971875,4.746875 10.7890625,4.6140625 10.6765625,4.403125 L8.6859375,0.7109375 C8.55,0.459375 8.30625,0.3140625 8.01875,0.3125 C7.73125,0.3125 7.4875,0.4578125 7.3515625,0.709375 L5.3578125,4.396875 C5.24375,4.60625 5.0609375,4.7390625 4.825,4.78125 L0.6875,5.528125 C0.4046875,5.5796875 0.190625,5.765625 0.1015625,6.0375 C0.0125,6.309375 0.0765625,6.5859375 0.275,6.7921875 L3.18125,9.821875 C3.346875,9.99375 3.4171875,10.209375 3.384375,10.4453125 L3.3390625,10.775 L12.6921875,10.775 L12.646875,10.453125 Z" id="路径" fill="#FAD97E" opacity="0.2"></path>
                        <path d="M15.7578125,6.803125 C15.95625,6.596875 16.0203125,6.3203125 15.93125,6.0484375 C15.8421875,5.7765625 15.628125,5.590625 15.3453125,5.5390625 L11.2078125,4.7890625 C10.971875,4.746875 10.7890625,4.6140625 10.6765625,4.403125 L8.6859375,0.7109375 C8.55,0.459375 8.30625,0.3140625 8.01875,0.3125 C7.73125,0.3125 7.4875,0.4578125 7.3515625,0.709375 L5.3578125,4.396875 C5.24375,4.60625 5.0609375,4.7390625 4.825,4.78125 L0.6875,5.528125 C0.4046875,5.5796875 0.190625,5.765625 0.1015625,6.0375 C0.0125,6.309375 0.0765625,6.5859375 0.275,6.7921875 L1.3265625,7.8890625 L14.715625,7.8890625 L15.7578125,6.803125 Z" id="路径" fill="#FAD97E" opacity="0.2"></path>
                        <path d="M15.346875,5.5390625 L11.209375,4.7890625 C10.9734375,4.746875 10.790625,4.6140625 10.678125,4.403125 L8.6859375,0.7109375 C8.55,0.459375 8.30625,0.3140625 8.01875,0.3125 C7.73125,0.3125 7.4875,0.4578125 7.3515625,0.709375 L5.3578125,4.396875 C5.24375,4.60625 5.0609375,4.7390625 4.825,4.78125 L0.6875,5.528125 C0.534375,5.55625 0.4046875,5.625 0.3,5.725 L15.7234375,5.725 C15.621875,5.63125 15.49375,5.565625 15.346875,5.5390625 Z" id="路径" fill="#FAD97E" opacity="0.2"></path>
                        <path d="M8.6859375,0.7109375 C8.55,0.459375 8.30625,0.3140625 8.01875,0.3125 C7.73125,0.3125 7.4875,0.4578125 7.3515625,0.709375 L5.8125,3.5578125 L10.2234375,3.5578125 L8.6859375,0.7109375 Z" id="路径" fill="#FAD97E" opacity="0.2"></path>
                    </g>
                    <g id="星星2" transform="translate(72.000000, 0.000000)">
                        <rect id="矩形" fill="#000000" opacity="0" x="0" y="0" width="16" height="16"></rect>
                        <path d="M13.2109375,14.6046875 C13.25,14.8875 13.1375,15.1484375 12.9046875,15.3171875 C12.671875,15.484375 12.3890625,15.5109375 12.1296875,15.3859375 L8.34375,13.5640625 C8.128125,13.4609375 7.9015625,13.4609375 7.6859375,13.5640625 L3.896875,15.3796875 C3.6375,15.503125 3.3546875,15.478125 3.121875,15.309375 C2.8890625,15.140625 2.778125,14.8796875 2.8171875,14.596875 L3.3828125,10.4453125 C3.415625,10.209375 3.3453125,9.99375 3.1796875,9.821875 L0.2734375,6.7921875 C0.0765625,6.5859375 0.0125,6.309375 0.1015625,6.0375 C0.190625,5.765625 0.4046875,5.5796875 0.6875,5.528125 L4.825,4.7828125 C5.0609375,4.740625 5.24375,4.6078125 5.3578125,4.3984375 L7.3515625,0.7109375 C7.4875,0.459375 7.7328125,0.3140625 8.01875,0.3140625 C8.30625,0.3140625 8.55,0.459375 8.6859375,0.7125 L10.6765625,4.403125 C10.790625,4.6125 10.9734375,4.7453125 11.2078125,4.7890625 L15.3453125,5.5390625 C15.628125,5.590625 15.8421875,5.7765625 15.93125,6.0484375 C16.0203125,6.3203125 15.95625,6.596875 15.7578125,6.803125 L12.8515625,9.8296875 C12.6859375,10.0015625 12.615625,10.2171875 12.6484375,10.453125 L13.2109375,14.6046875 L13.2109375,14.6046875 Z" id="路径" fill="#F19927"></path>
                        <path d="M12.646875,10.453125 C12.615625,10.2171875 12.684375,10.003125 12.85,9.8296875 L15.7578125,6.803125 C15.95625,6.596875 16.0203125,6.3203125 15.93125,6.0484375 C15.8421875,5.7765625 15.628125,5.590625 15.3453125,5.5390625 L11.2078125,4.7890625 C10.971875,4.746875 10.7890625,4.6140625 10.6765625,4.403125 L8.6859375,0.7109375 C8.55,0.459375 8.30625,0.3140625 8.01875,0.3125 C7.73125,0.3125 7.4875,0.4578125 7.3515625,0.709375 L5.3578125,4.396875 C5.24375,4.60625 5.0609375,4.7390625 4.825,4.78125 L0.6875,5.528125 C0.4046875,5.5796875 0.190625,5.765625 0.1015625,6.0375 C0.0125,6.309375 0.0765625,6.5859375 0.275,6.7921875 L3.18125,9.821875 C3.346875,9.99375 3.4171875,10.209375 3.384375,10.4453125 L3.04375,12.9390625 L12.9859375,12.9390625 L12.646875,10.453125 Z" id="路径" fill="#FAD97E" opacity="0.2"></path>
                        <path d="M12.646875,10.453125 C12.615625,10.2171875 12.684375,10.003125 12.85,9.8296875 L15.7578125,6.803125 C15.95625,6.596875 16.0203125,6.3203125 15.93125,6.0484375 C15.8421875,5.7765625 15.628125,5.590625 15.3453125,5.5390625 L11.2078125,4.7890625 C10.971875,4.746875 10.7890625,4.6140625 10.6765625,4.403125 L8.6859375,0.7109375 C8.55,0.459375 8.30625,0.3140625 8.01875,0.3125 C7.73125,0.3125 7.4875,0.4578125 7.3515625,0.709375 L5.3578125,4.396875 C5.24375,4.60625 5.0609375,4.7390625 4.825,4.78125 L0.6875,5.528125 C0.4046875,5.5796875 0.190625,5.765625 0.1015625,6.0375 C0.0125,6.309375 0.0765625,6.5859375 0.275,6.7921875 L3.18125,9.821875 C3.346875,9.99375 3.4171875,10.209375 3.384375,10.4453125 L3.3390625,10.775 L12.6921875,10.775 L12.646875,10.453125 Z" id="路径" fill="#FAD97E" opacity="0.2"></path>
                        <path d="M15.7578125,6.803125 C15.95625,6.596875 16.0203125,6.3203125 15.93125,6.0484375 C15.8421875,5.7765625 15.628125,5.590625 15.3453125,5.5390625 L11.2078125,4.7890625 C10.971875,4.746875 10.7890625,4.6140625 10.6765625,4.403125 L8.6859375,0.7109375 C8.55,0.459375 8.30625,0.3140625 8.01875,0.3125 C7.73125,0.3125 7.4875,0.4578125 7.3515625,0.709375 L5.3578125,4.396875 C5.24375,4.60625 5.0609375,4.7390625 4.825,4.78125 L0.6875,5.528125 C0.4046875,5.5796875 0.190625,5.765625 0.1015625,6.0375 C0.0125,6.309375 0.0765625,6.5859375 0.275,6.7921875 L1.3265625,7.8890625 L14.715625,7.8890625 L15.7578125,6.803125 Z" id="路径" fill="#FAD97E" opacity="0.2"></path>
                        <path d="M15.346875,5.5390625 L11.209375,4.7890625 C10.9734375,4.746875 10.790625,4.6140625 10.678125,4.403125 L8.6859375,0.7109375 C8.55,0.459375 8.30625,0.3140625 8.01875,0.3125 C7.73125,0.3125 7.4875,0.4578125 7.3515625,0.709375 L5.3578125,4.396875 C5.24375,4.60625 5.0609375,4.7390625 4.825,4.78125 L0.6875,5.528125 C0.534375,5.55625 0.4046875,5.625 0.3,5.725 L15.7234375,5.725 C15.621875,5.63125 15.49375,5.565625 15.346875,5.5390625 Z" id="路径" fill="#FAD97E" opacity="0.2"></path>
                        <path d="M8.6859375,0.7109375 C8.55,0.459375 8.30625,0.3140625 8.01875,0.3125 C7.73125,0.3125 7.4875,0.4578125 7.3515625,0.709375 L5.8125,3.5578125 L10.2234375,3.5578125 L8.6859375,0.7109375 Z" id="路径" fill="#FAD97E" opacity="0.2"></path>
                    </g>
                    <g id="星星2" transform="translate(96.000000, 0.000000)">
                        <rect id="矩形" fill="#000000" opacity="0" x="0" y="0" width="16" height="16"></rect>
                        <path d="M13.2109375,14.6046875 C13.25,14.8875 13.1375,15.1484375 12.9046875,15.3171875 C12.671875,15.484375 12.3890625,15.5109375 12.1296875,15.3859375 L8.34375,13.5640625 C8.128125,13.4609375 7.9015625,13.4609375 7.6859375,13.5640625 L3.896875,15.3796875 C3.6375,15.503125 3.3546875,15.478125 3.121875,15.309375 C2.8890625,15.140625 2.778125,14.8796875 2.8171875,14.596875 L3.3828125,10.4453125 C3.415625,10.209375 3.3453125,9.99375 3.1796875,9.821875 L0.2734375,6.7921875 C0.0765625,6.5859375 0.0125,6.309375 0.1015625,6.0375 C0.190625,5.765625 0.4046875,5.5796875 0.6875,5.528125 L4.825,4.7828125 C5.0609375,4.740625 5.24375,4.6078125 5.3578125,4.3984375 L7.3515625,0.7109375 C7.4875,0.459375 7.7328125,0.3140625 8.01875,0.3140625 C8.30625,0.3140625 8.55,0.459375 8.6859375,0.7125 L10.6765625,4.403125 C10.790625,4.6125 10.9734375,4.7453125 11.2078125,4.7890625 L15.3453125,5.5390625 C15.628125,5.590625 15.8421875,5.7765625 15.93125,6.0484375 C16.0203125,6.3203125 15.95625,6.596875 15.7578125,6.803125 L12.8515625,9.8296875 C12.6859375,10.0015625 12.615625,10.2171875 12.6484375,10.453125 L13.2109375,14.6046875 L13.2109375,14.6046875 Z" id="路径" fill="#F19927"></path>
                        <path d="M12.646875,10.453125 C12.615625,10.2171875 12.684375,10.003125 12.85,9.8296875 L15.7578125,6.803125 C15.95625,6.596875 16.0203125,6.3203125 15.93125,6.0484375 C15.8421875,5.7765625 15.628125,5.590625 15.3453125,5.5390625 L11.2078125,4.7890625 C10.971875,4.746875 10.7890625,4.6140625 10.6765625,4.403125 L8.6859375,0.7109375 C8.55,0.459375 8.30625,0.3140625 8.01875,0.3125 C7.73125,0.3125 7.4875,0.4578125 7.3515625,0.709375 L5.3578125,4.396875 C5.24375,4.60625 5.0609375,4.7390625 4.825,4.78125 L0.6875,5.528125 C0.4046875,5.5796875 0.190625,5.765625 0.1015625,6.0375 C0.0125,6.309375 0.0765625,6.5859375 0.275,6.7921875 L3.18125,9.821875 C3.346875,9.99375 3.4171875,10.209375 3.384375,10.4453125 L3.04375,12.9390625 L12.9859375,12.9390625 L12.646875,10.453125 Z" id="路径" fill="#FAD97E" opacity="0.2"></path>
                        <path d="M12.646875,10.453125 C12.615625,10.2171875 12.684375,10.003125 12.85,9.8296875 L15.7578125,6.803125 C15.95625,6.596875 16.0203125,6.3203125 15.93125,6.0484375 C15.8421875,5.7765625 15.628125,5.590625 15.3453125,5.5390625 L11.2078125,4.7890625 C10.971875,4.746875 10.7890625,4.6140625 10.6765625,4.403125 L8.6859375,0.7109375 C8.55,0.459375 8.30625,0.3140625 8.01875,0.3125 C7.73125,0.3125 7.4875,0.4578125 7.3515625,0.709375 L5.3578125,4.396875 C5.24375,4.60625 5.0609375,4.7390625 4.825,4.78125 L0.6875,5.528125 C0.4046875,5.5796875 0.190625,5.765625 0.1015625,6.0375 C0.0125,6.309375 0.0765625,6.5859375 0.275,6.7921875 L3.18125,9.821875 C3.346875,9.99375 3.4171875,10.209375 3.384375,10.4453125 L3.3390625,10.775 L12.6921875,10.775 L12.646875,10.453125 Z" id="路径" fill="#FAD97E" opacity="0.2"></path>
                        <path d="M15.7578125,6.803125 C15.95625,6.596875 16.0203125,6.3203125 15.93125,6.0484375 C15.8421875,5.7765625 15.628125,5.590625 15.3453125,5.5390625 L11.2078125,4.7890625 C10.971875,4.746875 10.7890625,4.6140625 10.6765625,4.403125 L8.6859375,0.7109375 C8.55,0.459375 8.30625,0.3140625 8.01875,0.3125 C7.73125,0.3125 7.4875,0.4578125 7.3515625,0.709375 L5.3578125,4.396875 C5.24375,4.60625 5.0609375,4.7390625 4.825,4.78125 L0.6875,5.528125 C0.4046875,5.5796875 0.190625,5.765625 0.1015625,6.0375 C0.0125,6.309375 0.0765625,6.5859375 0.275,6.7921875 L1.3265625,7.8890625 L14.715625,7.8890625 L15.7578125,6.803125 Z" id="路径" fill="#FAD97E" opacity="0.2"></path>
                        <path d="M15.346875,5.5390625 L11.209375,4.7890625 C10.9734375,4.746875 10.790625,4.6140625 10.678125,4.403125 L8.6859375,0.7109375 C8.55,0.459375 8.30625,0.3140625 8.01875,0.3125 C7.73125,0.3125 7.4875,0.4578125 7.3515625,0.709375 L5.3578125,4.396875 C5.24375,4.60625 5.0609375,4.7390625 4.825,4.78125 L0.6875,5.528125 C0.534375,5.55625 0.4046875,5.625 0.3,5.725 L15.7234375,5.725 C15.621875,5.63125 15.49375,5.565625 15.346875,5.5390625 Z" id="路径" fill="#FAD97E" opacity="0.2"></path>
                        <path d="M8.6859375,0.7109375 C8.55,0.459375 8.30625,0.3140625 8.01875,0.3125 C7.73125,0.3125 7.4875,0.4578125 7.3515625,0.709375 L5.8125,3.5578125 L10.2234375,3.5578125 L8.6859375,0.7109375 Z" id="路径" fill="#FAD97E" opacity="0.2"></path>
                    </g>
                </g>
            </g>
        </g>
    </g>
</svg>