<?xml version="1.0" encoding="UTF-8"?>
<svg width="40px" height="40px" viewBox="0 0 40 40" version="1.1" xmlns="http://www.w3.org/2000/svg" xmlns:xlink="http://www.w3.org/1999/xlink">
    <title>138设置、系统设置、功能设置、属性</title>
    <g id="Coinbase" stroke="none" stroke-width="1" fill="none" fill-rule="evenodd">
        <g id="画板" transform="translate(-61.000000, -948.000000)" fill-rule="nonzero">
            <g id="138设置、系统设置、功能设置、属性" transform="translate(61.000000, 948.000000)">
                <rect id="矩形" fill="#000000" opacity="0" x="0" y="0" width="40" height="40"></rect>
                <path d="M37.1757812,16.75 C37.1679688,16.6796875 37.1601562,16.6210938 37.1484375,16.5859375 L37.1484375,16.5546875 L37.1328125,16.46875 C36.8554688,15.1171875 35.9609375,14.2460938 34.8476562,14.2460938 L34.6640625,14.2460938 C32.765625,14.2460938 31.2265625,12.6992187 31.2265625,10.8085938 C31.2265625,10.3710938 31.4296875,9.75 31.515625,9.53125 C32.0546875,8.2734375 31.4804687,6.83984375 30.1484375,6.109375 L25.9570312,3.73828125 L25.8789062,3.7109375 C25.5664062,3.609375 25.203125,3.48828125 24.796875,3.48828125 C24.0390625,3.48828125 23.1875,3.83984375 22.6601562,4.3671875 C22,5.01953125 20.6601562,5.9921875 19.8632812,5.9921875 C19.0703125,5.9921875 17.7265625,5.0234375 17.0664062,4.3671875 C16.5039062,3.8125 15.7265625,3.48828125 14.9296875,3.48828125 C14.5117187,3.48828125 14.1601562,3.60546875 13.8476562,3.7109375 L13.7773437,3.73828125 L9.3828125,6.1171875 L9.35546875,6.1328125 C8.2890625,6.80078125 7.85546875,8.33203125 8.3984375,9.546875 L8.40625,9.5625 L8.4140625,9.578125 C8.5,9.76953125 8.765625,10.4179688 8.765625,10.984375 C8.765625,12.8828125 7.21875,14.421875 5.328125,14.421875 L5.14453125,14.421875 C3.98046875,14.421875 3.109375,15.28125 2.859375,16.6601562 L2.84375,16.7382812 L2.84375,16.765625 C2.84375,16.8046875 2.828125,16.859375 2.81640625,16.9296875 C2.71875,17.5195312 2.484375,18.9101562 2.484375,20.046875 C2.484375,21.1835938 2.71484375,22.5742188 2.81640625,23.1640625 C2.82421875,23.234375 2.83203125,23.2929687 2.84375,23.328125 L2.84375,23.359375 L2.859375,23.4453125 C3.13671875,24.796875 4.03125,25.6679688 5.14453125,25.6679688 L5.23828125,25.6679688 C7.13671875,25.6679688 8.67578125,27.2148438 8.67578125,29.1054688 C8.67578125,29.5429688 8.47265625,30.1640625 8.38671875,30.3828125 C7.8671875,31.5664062 8.359375,33.0859375 9.5078125,33.8515625 L9.5390625,33.8671875 L13.6796875,36.171875 L13.7578125,36.1992188 C14.0703125,36.3007812 14.4257812,36.421875 14.8320312,36.421875 C15.6992187,36.421875 16.4804687,36.0898438 16.96875,35.5429688 C17.015625,35.5078125 17.0625,35.4609375 17.1171875,35.4140625 C17.6171875,34.9765625 18.9609375,33.8203125 19.8476562,33.8203125 C20.5078125,33.8203125 21.6132812,34.5117188 22.7265625,35.625 C23.2890625,36.1796875 24.0664062,36.5039063 24.8632812,36.5039063 C25.4023437,36.5039063 25.8007812,36.3554688 26.2539062,36.1328125 L26.2695312,36.125 L30.515625,33.7773438 L30.53125,33.7617188 C31.5976562,33.09375 32.03125,31.5625 31.4882812,30.3476563 L31.4804687,30.3320313 L31.4726562,30.3164063 C31.4648437,30.3125 31.1328125,29.6210938 31.1953125,29 L31.203125,28.9609375 L31.203125,28.921875 C31.203125,27.0234375 32.75,25.484375 34.640625,25.484375 L34.8359375,25.484375 C36,25.484375 36.8710937,24.625 37.1210937,23.2460938 L37.1367187,23.1679688 L37.1367187,23.140625 C37.1445312,23.109375 37.1523437,23.0625 37.1640625,23 C37.265625,22.4257812 37.5001938,21.0859375 37.5001938,19.859375 C37.5078125,18.7265625 37.2773437,17.3398438 37.1757812,16.75 L37.1757812,16.75 Z M19.9882813,25.4375 C16.984375,25.4375 14.5507813,23.0039062 14.5507813,20 C14.5507813,16.9960937 16.984375,14.5625 19.9882813,14.5625 C22.9921875,14.5625 25.4257812,16.9960938 25.4257812,20 C25.4257812,23.0039062 22.9921875,25.4375 19.9882812,25.4375 L19.9882813,25.4375 Z" id="形状" fill="#1652F0"></path>
            </g>
        </g>
    </g>
</svg>