<?xml version="1.0" encoding="UTF-8"?>
<svg width="32px" height="32px" viewBox="0 0 32 32" version="1.1" xmlns="http://www.w3.org/2000/svg" xmlns:xlink="http://www.w3.org/1999/xlink">
    <title>交换</title>
    <g id="Coinbase" stroke="none" stroke-width="1" fill="none" fill-rule="evenodd">
        <g id="Swap-usdt" transform="translate(-116.000000, -766.000000)" fill-rule="nonzero">
            <g id="交换" transform="translate(132.000000, 782.000000) rotate(-90.000000) translate(-132.000000, -782.000000) translate(116.000000, 766.000000)">
                <rect id="矩形" fill="#000000" opacity="0" x="0" y="2.44194572e-13" width="32" height="32"></rect>
                <path d="M5.09090909,14.0363636 L26.4,14.0363636 C27.4909091,14.0363636 28.4363636,13.3818182 28.8,12.4363636 C29.1636364,11.4909091 29.0181818,10.3272727 28.2909091,9.52727272 L23.7090909,4.72727272 C22.8363636,3.85454544 21.5272727,3.85454544 20.6545455,4.65454547 C19.7818182,5.45454547 19.7818182,6.83636366 20.5818182,7.70909091 L22.4,9.6 L5.09090909,9.6 C3.85454547,9.6 2.90909091,10.5454545 2.90909091,11.7818182 C2.90909091,13.0181818 3.92727272,14.0363636 5.09090909,14.0363636 Z M26.9090909,17.9636364 L5.6,17.9636364 C4.50909091,17.9636364 3.56363638,18.6181818 3.2,19.5636364 C2.83636363,20.5090909 2.98181819,21.6727273 3.70909091,22.4727273 L8.29090909,27.2727273 C8.72727272,27.7090909 9.30909091,27.9272727 9.89090909,27.9272727 C10.4,27.9272727 10.9818182,27.7090909 11.4181818,27.3454545 C12.2909091,26.5454545 12.2909091,25.1636363 11.4909091,24.2909091 L9.67272728,22.4 L26.9090909,22.4 C28.1454545,22.4 29.0909091,21.4545455 29.0909091,20.2181818 C29.0909091,18.9818182 28.0727273,17.9636364 26.9090909,17.9636364 L26.9090909,17.9636364 Z" id="形状" fill="#1652F0"></path>
            </g>
        </g>
    </g>
</svg>