<?xml version="1.0" encoding="UTF-8"?>
<svg width="90px" height="90px" viewBox="0 0 90 90" version="1.1" xmlns="http://www.w3.org/2000/svg" xmlns:xlink="http://www.w3.org/1999/xlink">
    <title>编组 10</title>
    <g id="Coinbase" stroke="none" stroke-width="1" fill="none" fill-rule="evenodd">
        <g id="产品详情" transform="translate(-621.000000, -143.000000)">
            <g id="编组-10" transform="translate(621.000000, 143.000000)">
                <g id="收-藏-(1)" transform="translate(23.181818, 23.181818)" fill-rule="nonzero">
                    <rect id="矩形" fill="#000000" opacity="0" x="-0.14379085" y="-0.14379085" width="44.2875817" height="44.2875817"></rect>
                    <path d="M33.2640691,43.3528163 C32.6405565,43.3528163 31.9397272,43.1735936 31.2900672,42.8482608 L22.0132671,38.2026681 L12.6790206,42.8407192 C12.0878893,43.155823 11.4112161,43.3213934 10.7212094,43.3213934 C9.82459734,43.3248884 8.95081851,43.0384588 8.22988648,42.504724 C6.92351015,41.5234378 6.25410971,39.8239575 6.56311704,38.2761345 L8.4721832,28.3604627 L1.15492596,21.5323317 C0.0247004636,20.3858099 -0.408964787,18.7227928 0.017209283,17.1694222 L0.0318414598,17.1190576 C0.56379468,15.5228204 1.88346118,14.4043535 3.48356331,14.1897622 L13.6498526,12.3390148 L18.2128839,3.06018206 C18.945878,1.59107003 20.436715,0.647058824 22.0132671,0.647058824 C23.6578719,0.647058824 25.1872374,1.62661132 25.8284557,3.08683803 L30.3768982,12.3362408 L40.5447459,14.116079 C42.1582417,14.350151 43.4844783,15.5101848 43.9328308,17.0795721 C44.4348611,18.6220042 44.0248742,20.3160379 42.8733399,21.4573049 L42.8483181,21.4824005 L35.5517104,28.3618063 L37.3957975,38.2952055 C37.6927701,39.8836842 37.0617683,41.4883732 35.7480759,42.488297 C35.044432,43.0546493 34.1668638,43.3600273 33.2640691,43.3528163 Z M22.0167737,34.8550691 L31.8725837,39.7898032 C32.1620238,39.9358692 32.4956201,40.0277131 32.7238907,40.0277131 C33.0752361,40.0277131 33.401473,39.9193989 33.6410857,39.7192408 L33.6856749,39.6823992 C34.2457237,39.2616684 34.5187999,38.5930154 34.3962446,37.9383623 L32.4129353,27.2411289 L40.2576868,19.8446407 C40.7393365,19.3557313 40.9040135,18.6556114 40.690375,18.0118373 L40.6688597,17.9441355 C40.4960931,17.3205575 39.9686638,16.860144 39.3281107,16.7737436 L39.2833484,16.7666787 L28.4286109,14.8667803 L23.543282,4.93169079 C23.3061368,4.37668328 22.6624509,3.9738965 22.0125745,3.9738965 C21.3740402,3.9738965 20.7631684,4.37421273 20.4537282,4.99228435 L15.599655,14.8624027 L4.68777414,16.8469934 C4.02499714,16.930212 3.51014365,17.3709239 3.27230584,18.0582144 C3.10342974,18.6862549 3.30356156,19.4429809 3.764605,19.9147697 L11.6184475,27.2422125 L9.55738855,37.9450371 C9.43344795,38.5639756 9.72622136,39.276275 10.2677418,39.6830927 C10.5392596,39.8874551 10.8909946,40.0001903 11.2598293,40.0001903 C11.5442044,40.0001903 11.8168044,39.9338321 12.0517851,39.8073138 L12.0856815,39.787376 L22.016817,34.8550691 L22.0167737,34.8550691 Z" id="形状" fill="#353F52"></path>
                </g>
                <circle id="椭圆形" stroke="#D8D8D8" cx="45" cy="45" r="44"></circle>
            </g>
        </g>
    </g>
</svg>