<?xml version="1.0" encoding="UTF-8"?>
<svg width="36px" height="36px" viewBox="0 0 36 36" version="1.1" xmlns="http://www.w3.org/2000/svg" xmlns:xlink="http://www.w3.org/1999/xlink">
    <title>矩形</title>
    <g id="Coinbase" stroke="none" stroke-width="1" fill="none" fill-rule="evenodd">
        <g id="产品详情" transform="translate(-40.000000, -1464.000000)" fill="#1652F0" fill-rule="nonzero">
            <g id="icon1" transform="translate(40.000000, 1464.000000)">
                <path d="M34.428125,29.3285156 L7.175,29.3285156 L7.175,6.86367187 C7.175,5.97773437 6.4578125,5.26053407 5.571875,5.26053407 C4.6859375,5.25703125 3.96875,5.97773437 3.96875,6.86015625 L3.96875,30.928125 C3.96875,31.8140625 4.6859375,32.53125 5.571875,32.53125 L9.85742188,32.53125 C9.75195312,32.8511719 9.678125,33.1851562 9.678125,33.5402344 C9.678125,35.3121094 11.1125,36.7464844 12.884375,36.7464844 C14.65625,36.7464844 16.090625,35.3121094 16.090625,33.5402344 C16.090625,33.1851562 16.0203125,32.8511719 15.9113281,32.53125 L26.9890625,32.53125 C26.8835937,32.8511719 26.8097656,33.1851562 26.8097656,33.5402344 C26.8097656,35.3121094 28.2441406,36.7464844 30.0160156,36.7464844 C31.7878906,36.7464844 33.2222656,35.3121094 33.2222656,33.5402344 C33.2222656,33.1851562 33.1519531,32.8511719 33.0429688,32.53125 L34.4246094,32.53125 C35.3105469,32.53125 36.0277472,31.8140625 36.0277472,30.928125 C36.03125,30.0457031 35.3140625,29.3285156 34.428125,29.3285156 Z M10.4058594,15.6703125 L33.6511719,15.6703125 C34.5371094,15.6703125 35.2542969,14.953125 35.2542969,14.0671875 L35.2542969,6.853125 C35.2542969,5.9671875 34.5371094,5.25 33.6511719,5.25 L10.4058594,5.25 C9.51992188,5.25 8.80273438,5.9671875 8.80273438,6.853125 L8.80273438,14.0671875 C8.80273438,14.953125 9.5234375,15.6703125 10.4058594,15.6703125 Z M13.6402344,7.6546875 L14.4417969,7.6546875 C14.8847656,7.6546875 15.2433594,8.01328125 15.2433594,8.45625 C15.2433594,8.89921875 14.8847656,9.2578125 14.4417969,9.2578125 L13.6402344,9.2578125 C12.7402344,9.2578125 12.0089844,9.9890625 12.0089844,10.8890625 C12.0089844,11.3320312 11.6503906,11.690625 11.2074219,11.690625 C10.7644531,11.690625 10.4058594,11.3320312 10.4058594,10.8890625 C10.4058594,9.10664062 11.8578125,7.6546875 13.6402344,7.6546875 L13.6402344,7.6546875 Z M10.4058594,27.7183594 L33.6511719,27.7183594 C34.5371094,27.7183594 35.2542969,27.0011719 35.2542969,26.1152344 L35.2542969,18.9011719 C35.2542969,18.0152344 34.5371094,17.2980469 33.6511719,17.2980469 L10.4058594,17.2980469 C9.51992188,17.2980469 8.80273438,18.0152344 8.80273438,18.9011719 L8.80273438,26.1152344 C8.80273438,27.0011719 9.5234375,27.7183594 10.4058594,27.7183594 Z M13.6402344,19.8363281 L14.4417969,19.8363281 C14.8847656,19.8363281 15.2433594,20.1949219 15.2433594,20.6378906 C15.2433594,21.0808594 14.8847656,21.4394531 14.4417969,21.4394531 L13.6402344,21.4394531 C12.7402344,21.4394531 12.0089844,22.1707031 12.0089844,23.0707031 C12.0089844,23.5136719 11.6503906,23.8722656 11.2074219,23.8722656 C10.7644531,23.8722656 10.4058594,23.5136719 10.4058594,23.0707031 C10.4058594,21.2882812 11.8578125,19.8363281 13.6402344,19.8363281 L13.6402344,19.8363281 Z" id="形状"></path>
            </g>
        </g>
    </g>
</svg>