<?xml version="1.0" encoding="UTF-8"?>
<svg width="44px" height="44px" viewBox="0 0 44 44" version="1.1" xmlns="http://www.w3.org/2000/svg" xmlns:xlink="http://www.w3.org/1999/xlink">
    <title>箭头</title>
    <g id="Coinbase" stroke="none" stroke-width="1" fill="none" fill-rule="evenodd">
        <g id="首页" transform="translate(-84.000000, -2124.000000)" fill="#000000" fill-rule="nonzero">
            <g id="箭头" transform="translate(84.000000, 2124.000000)">
                <rect id="矩形" opacity="0" x="0" y="0" width="44" height="44"></rect>
                <path d="M42.5333333,20.7166666 L25.6666667,4.76666665 C24.9333333,4.0333333 23.8333333,4.0333333 23.1,4.76666665 C22.3666667,5.5 22.3666667,6.6 23.1,7.33333335 L36.6666667,20.1666667 L2.75,20.1666667 C1.65,20.1666667 0.916666652,20.9 0.916666652,22 C0.916666652,23.1 1.65,23.8333333 2.75,23.8333333 L36.6666667,23.8333333 L23.1,36.6666667 C22.3666667,37.4 22.3666667,38.5 23.1,39.2333333 C23.4666667,39.6 24.0166667,39.7833333 24.3833333,39.7833333 C24.75,39.7833333 25.3,39.6 25.6666667,39.2333333 L42.5333333,23.2833333 C42.9,22.9166667 43.0833333,22.3666667 43.0833333,22 C43.0833333,21.6333333 42.9,21.0833333 42.5333333,20.7166666 Z" id="路径"></path>
            </g>
        </g>
    </g>
</svg>