<?xml version="1.0" encoding="UTF-8"?>
<svg width="54px" height="54px" viewBox="0 0 54 54" version="1.1" xmlns="http://www.w3.org/2000/svg" xmlns:xlink="http://www.w3.org/1999/xlink">
    <title>客服-</title>
    <g id="Coinbase" stroke="none" stroke-width="1" fill="none" fill-rule="evenodd">
        <g id="下拉菜单" transform="translate(-647.000000, -134.000000)" fill="#1652F0" fill-rule="nonzero">
            <g id="客服-" transform="translate(647.000000, 134.000000)">
                <path d="M47.9999778,24.2036364 C47.9999778,12.4948636 38.5963865,3 26.9999777,3 C15.4035689,3 6,12.4948636 6,24.2036364 C6,35.7208636 15.0852535,45.0865455 26.4097678,45.3983636 L25.0679798,52 L39.2197542,41.4538636 C44.7396171,37.4699107 48.00984,31.0449909 47.9999778,24.2036364 Z M38.2581763,29.9745 C38.134387,30.2685 35.1413375,37.2398636 27.0861882,37.2398636 C18.7679865,37.2398636 15.8567264,30.2573636 15.7307265,29.9655909 C15.4305918,29.2158763 15.7855618,28.3624608 16.5265152,28.0523636 C16.8815687,27.9045444 17.2805859,27.9061422 17.6344622,28.0568003 C17.9883384,28.2074584 18.2675988,28.4946282 18.4098816,28.8541818 C18.5049341,29.0902727 20.7618791,34.3132273 27.0751355,34.3132273 C33.2292343,34.3132273 35.5502845,28.9009545 35.5790212,28.8452727 C35.8885038,28.099839 36.7391383,27.7483317 37.4789666,28.0601591 C38.2187948,28.3719866 38.5676589,29.2290662 38.2581763,29.9745 L38.2581763,29.9745 Z" id="形状"></path>
            </g>
        </g>
    </g>
</svg>