<?xml version="1.0" encoding="UTF-8"?>
<svg width="32px" height="32px" viewBox="0 0 32 32" version="1.1" xmlns="http://www.w3.org/2000/svg" xmlns:xlink="http://www.w3.org/1999/xlink">
    <title>形状</title>
    <g id="Coinbase" stroke="none" stroke-width="1" fill="none" fill-rule="evenodd">
        <g id="矿机列表-进行中" transform="translate(-359.000000, -168.000000)" fill="#1652F0" fill-rule="nonzero">
            <g id="编组-2" transform="translate(32.000000, 168.000000)">
                <g id="挖矿-(1)" transform="translate(327.000000, 0.000000)">
                    <path d="M3.89251274,10.5745 L30.8445473,10.5745 C31.4894624,10.5745 32,11.2310938 32,12.0604688 C32,12.2678125 31.9731488,12.4405938 31.8925222,12.6479688 L28.4798665,27.02375 L27.1900362,27.02375 C26.7600765,25.2267813 25.4433707,23.9135938 23.9117094,23.9135938 C22.380048,23.9135938 21.0633422,25.2267813 20.6334312,27.02375 L14.2648819,27.02375 C13.8080468,25.2267813 12.5182165,23.9135938 10.9596796,23.9135938 C9.42801826,23.9135938 8.13818796,25.2267813 7.68137711,27.02375 L6.79460663,27.02375 L2.81763795,10.5745 L2.33395159,8.77753125 L0.775439035,8.77753125 C0.506732488,8.77753125 0.184274912,8.46653125 0.103648368,8.12096875 L0.0230461241,7.775375 C-0.0575804198,7.4298125 0.0767728537,7.1188125 0.372379215,7.1188125 L2.49520468,7.1188125 C2.76393552,7.1188125 3.05951758,7.4298125 3.14011983,7.775375 L3.22074637,8.08640625 L3.89253704,10.5745313 L3.89251274,10.5745 Z M23.9117094,24.673875 C25.4971217,24.673875 26.7600765,26.2980625 26.7600765,28.3369375 C26.7600765,30.3758125 25.4971217,32 23.9117094,32 C22.326297,32 21.0633422,30.3758125 21.0633422,28.3369375 C21.0633422,26.2980625 22.326297,24.673875 23.9117094,24.673875 Z M23.9117094,27.403875 C24.3147935,27.403875 24.6372511,27.8185625 24.6372511,28.3369375 C24.6372511,28.8553125 24.3147935,29.2699687 23.9117094,29.2699687 C23.5086253,29.2699687 23.186192,28.8552812 23.186192,28.3369375 C23.186192,27.8185937 23.5086496,27.403875 23.9117094,27.403875 Z M5.26294529,9.745125 L9.37426723,4.907125 L12.410763,9.123125 L18.5643082,0 L23.2667942,6.946 L27.7812003,3.6285 L30.4952142,8.846625 L30.656443,9.745125 L5.26294529,9.745125 L5.26294529,9.745125 Z M10.9596796,24.673875 C12.545092,24.673875 13.8349223,26.2980625 13.8349223,28.3369375 C13.8349223,30.3758125 12.545092,32 10.9597039,32 C9.40116705,32 8.11133674,30.3758125 8.11133674,28.3369375 C8.11133674,26.2980625 9.40116705,24.673875 10.9597039,24.673875 L10.9596796,24.673875 Z M10.9596796,27.403875 C11.3627637,27.403875 11.6852213,27.8185625 11.6852213,28.3369375 C11.6852213,28.8553125 11.3627637,29.2699687 10.9596796,29.2699687 C10.5834953,29.2699687 10.2341622,28.8552812 10.2341622,28.3369375 C10.2341622,27.8185937 10.5834953,27.403875 10.9596796,27.403875 Z" id="形状"></path>
                </g>
            </g>
        </g>
    </g>
</svg>