<?xml version="1.0" encoding="UTF-8"?>
<svg width="32px" height="32px" viewBox="0 0 32 32" version="1.1" xmlns="http://www.w3.org/2000/svg" xmlns:xlink="http://www.w3.org/1999/xlink">
    <title>挖矿 (2)</title>
    <g id="Coinbase" stroke="none" stroke-width="1" fill="none" fill-rule="evenodd">
        <g id="矿机列表-进行中" transform="translate(-602.000000, -168.000000)" fill="#1652F0" fill-rule="nonzero">
            <g id="编组-2" transform="translate(32.000000, 168.000000)">
                <g id="挖矿-(2)" transform="translate(570.000000, 0.000000)">
                    <path d="M32,27.6083568 C30.4147903,25.7156948 28.7491994,23.8918157 27.0078101,22.1417378 C25.0650087,20.1816864 23.0216421,18.3239115 20.8859772,16.5759295 C20.8606079,16.5477763 20.8321626,16.5225549 20.801174,16.5007375 C19.7513065,15.5977184 18.181674,15.6606065 17.2074373,16.6447222 L2.16526499,31.7583157 C1.87228973,32.0663149 1.38624276,32.0819915 1.07402347,31.7935119 C0.391984477,31.1229366 0.0054632906,30.2081617 0,29.25177 C-0.00534834985,28.2953783 0.370807299,27.3762938 1.04522237,26.6980536 L14.1289201,13.5522509 C14.5321355,13.1458941 14.781745,12.6355483 14.8649481,12.1092043 C15.0122303,11.2583651 14.7378833,10.3889299 14.1289201,9.77665221 L9.96556174,5.59629653 C9.18488869,4.81127153 9.18488869,3.54322321 9.96556174,2.75819821 L12.1256439,0.587228984 C12.8847289,-0.172855667 14.1085496,-0.198274705 14.8985494,0.529635098 C15.7337812,1.28795451 15.6697788,1.18396553 16.4826097,1.99987883 C24.3549092,9.90943809 29.6527107,19.0140703 32,27.6083568" id="路径"></path>
                </g>
            </g>
        </g>
    </g>
</svg>