<?xml version="1.0" encoding="UTF-8"?>
<svg width="54px" height="54px" viewBox="0 0 54 54" version="1.1" xmlns="http://www.w3.org/2000/svg" xmlns:xlink="http://www.w3.org/1999/xlink">
    <title>矿机</title>
    <g id="Coinbase" stroke="none" stroke-width="1" fill="none" fill-rule="evenodd">
        <g id="下拉菜单" transform="translate(-448.000000, -134.000000)" fill="#1652F0" fill-rule="nonzero">
            <g id="矿机" transform="translate(448.000000, 134.000000)">
                <path d="M7.36363636,3 L46.6363636,3 C49.0463335,3 51,4.95366654 51,7.36363636 L51,20.4545454 C51,22.8645152 49.0463335,24.8181818 46.6363636,24.8181818 L7.36363636,24.8181818 C4.95366654,24.8181818 3,22.8645152 3,20.4545454 L3,7.36363636 C3,4.95366654 4.95366654,3 7.36363636,3 Z M40.0909091,18.2727273 C41.6498862,18.2727273 43.0904405,17.4410229 43.8699291,16.0909091 C44.6494176,14.7407953 44.6494176,13.0773865 43.8699291,11.7272727 C43.0904405,10.3771589 41.6498862,9.54545456 40.0909091,9.54545456 C37.6809393,9.54545456 35.7272727,11.4991211 35.7272727,13.9090909 C35.7272727,16.3190607 37.6809393,18.2727273 40.0909091,18.2727273 L40.0909091,18.2727273 Z M11.7272727,11.7272727 C10.947708,11.7271584 10.2273116,12.1429857 9.83749623,12.8180895 C9.44768088,13.4931933 9.44768088,14.3249885 9.83749623,15.0000923 C10.2273116,15.6751961 10.947708,16.0910233 11.7272727,16.0909091 L27,16.0909091 C28.20486,16.0907325 29.1814984,15.1139509 29.1814984,13.9090909 C29.1814984,12.7042309 28.20486,11.7274493 27,11.7272727 L11.7272727,11.7272727 L11.7272727,11.7272727 Z M7.36363636,29.1818182 L46.6363636,29.1818182 C49.0463335,29.1818182 51,31.1354847 51,33.5454545 L51,46.6363636 C51,49.0463334 49.0463335,51 46.6363636,51 L7.36363636,51 C4.95366654,51 3,49.0463334 3,46.6363636 L3,33.5454545 C3,31.1354847 4.95366654,29.1818182 7.36363636,29.1818182 L7.36363636,29.1818182 Z M11.7272727,37.9090909 C10.5224127,37.9092675 9.54577432,38.8860491 9.54577432,40.0909091 C9.54577432,41.2957691 10.5224127,42.2725507 11.7272727,42.2727273 L27,42.2727273 C28.20486,42.2725507 29.1814984,41.2957691 29.1814984,40.0909091 C29.1814984,38.8860491 28.20486,37.9092675 27,37.9090909 L11.7272727,37.9090909 Z M37.9090909,44.4545454 C40.3190607,44.4545454 42.2727273,42.5008789 42.2727273,40.0909091 C42.2727273,37.6809392 40.3190607,35.7272727 37.9090909,35.7272727 C35.4991211,35.7272727 33.5454546,37.6809392 33.5454546,40.0909091 C33.5454546,42.5008789 35.4991211,44.4545454 37.9090909,44.4545454 Z" id="形状"></path>
            </g>
        </g>
    </g>
</svg>