<?xml version="1.0" encoding="UTF-8"?>
<svg width="41px" height="40px" viewBox="0 0 41 40" version="1.1" xmlns="http://www.w3.org/2000/svg" xmlns:xlink="http://www.w3.org/1999/xlink">
    <title>返回</title>
    <g id="Coinbase" stroke="none" stroke-width="1" fill="none" fill-rule="evenodd">
        <g id="绑定谷歌2FA" transform="translate(-40.000000, -72.000000)" fill-rule="nonzero">
            <g id="Base顶部" transform="translate(0.500000, 0.000000)">
                <g id="返回" transform="translate(40.000000, 72.000000)">
                    <rect id="矩形" fill="#000000" opacity="0" x="0" y="0" width="40" height="40"></rect>
                    <path d="M19.075,6.05 C19.7379632,6.71282094 19.8094987,7.76343166 19.2425,8.51 L19.075,8.7025 L8.025,19.75 L19.075,30.8 C19.7365349,31.4624699 19.8080283,32.5113951 19.2425,33.2575 L19.075,33.45 C18.4121791,34.1129632 17.3615683,34.1844987 16.615,33.6175 L16.425,33.45 L4.05,21.075 C3.38703679,20.4121791 3.3155013,19.3615683 3.8825,18.615 L4.05,18.425 L16.425,6.05 C17.1570439,5.31886655 18.3429561,5.31886655 19.075,6.05 L19.075,6.05 Z M34,17.875 C34.9857104,17.8753021 35.8028789,18.638782 35.8700648,19.6222 C35.9372508,20.6056181 35.2315105,21.4731413 34.255,21.6075 L34,21.625 L6.5,21.625 C5.51428961,21.6246979 4.69712114,20.861218 4.62993518,19.8778 C4.56274921,18.8943819 5.26848948,18.0268587 6.245,17.8925 L6.5,17.875 L34,17.875 Z" id="形状" fill="#353F52"></path>
                </g>
            </g>
        </g>
    </g>
</svg>