<?xml version="1.0" encoding="UTF-8"?>
<svg width="40px" height="40px" viewBox="0 0 40 40" version="1.1" xmlns="http://www.w3.org/2000/svg" xmlns:xlink="http://www.w3.org/1999/xlink">
    <title>画板</title>
    <g id="页面-1" stroke="none" stroke-width="1" fill="none" fill-rule="evenodd">
        <g id="画板" transform="translate(-189.000000, -87.000000)" fill-rule="nonzero">
            <g id="降序" transform="translate(209.000000, 107.000000) scale(-1, 1) translate(-209.000000, -107.000000) translate(189.000000, 87.000000)">
                <rect id="矩形" fill="#000000" opacity="0" x="0" y="0" width="40" height="40"></rect>
                <path d="M10.5406631,36.9487179 L19.0049875,22.7847236 L13.4869032,22.7847236 L13.4869032,2.07692308 L7.59515551,2.07692308 L7.59515551,22.7847937 L2.07692308,22.7847937 L10.5406631,36.9487179 L10.5406631,36.9487179 Z M21.8827363,2.0966993 L36.9487179,2.0966993 L36.9487179,6.34699205 L21.8827363,6.34699205 L21.8827363,2.0966993 L21.8827363,2.0966993 Z M21.8827441,13.9973631 L33.90165,13.9973631 L33.90165,9.74713272 L21.8827441,9.74713272 L21.8827441,13.9973631 Z M21.8827441,21.6477342 L30.854582,21.6477342 L30.854582,17.3974414 L21.8827441,17.3974414 L21.8827441,21.6477342 L21.8827441,21.6477342 Z M21.8827441,29.2982845 L27.8075608,29.2982845 L27.8075608,25.0480619 L21.8827441,25.0480619 L21.8827441,29.2982845 Z M21.8827441,36.9487179 L24.7604461,36.9487179 L24.7604461,32.6984954 L21.8827441,32.6984954 L21.8827441,36.9487179 Z" id="形状" fill="#E1506A"></path>
            </g>
        </g>
    </g>
</svg>